<svg width="189" height="189" xmlns="http://www.w3.org/2000/svg" xmlns:xlink="http://www.w3.org/1999/xlink" xml:space="preserve" overflow="hidden"><g><g><path d="M61.0312 61.0312 39.375 61.0312 39.375 47.25 61.0312 47.25 61.0312 61.0312ZM90.5625 47.25 90.5625 61.0312 68.9062 61.0312 68.9062 47.25 90.5625 47.25ZM120.094 47.25 120.094 61.0312 98.4375 61.0312 98.4375 47.25 120.094 47.25ZM149.625 47.25 149.625 61.0312 127.969 61.0312 127.969 47.25 149.625 47.25ZM149.625 82.6875 127.969 82.6875 127.969 68.9062 149.625 68.9062 149.625 82.6875ZM149.625 99.4219 127.969 101.391 127.969 90.5625 149.625 90.5625 149.625 99.4219ZM61.0312 90.5625 61.0312 107.297 39.375 109.266 39.375 90.5625 61.0312 90.5625ZM61.0312 82.6875 39.375 82.6875 39.375 68.9062 61.0312 68.9062 61.0312 82.6875ZM90.5625 82.6875 68.9062 82.6875 68.9062 68.9062 90.5625 68.9062 90.5625 82.6875ZM98.4375 82.6875 98.4375 68.9062 120.094 68.9062 120.094 82.6875 98.4375 82.6875ZM90.5625 104.738 68.9062 106.706 68.9062 90.5625 90.5625 90.5625 90.5625 104.738ZM98.4375 90.5625 120.094 90.5625 120.094 101.981 98.4375 103.95 98.4375 90.5625ZM161.438 110.25 161.438 35.4375 39.375 35.4375 39.375 33.4688C39.375 23.625 31.5 15.75 21.6562 15.75 18.3094 15.75 15.75 18.3094 15.75 21.6562 15.75 25.0031 18.3094 27.5625 21.6562 27.5625 25.0031 27.5625 27.5625 30.1219 27.5625 33.4688L27.5625 131.906C27.5625 141.75 35.4375 149.625 45.2812 149.625L51.1875 149.625 137.812 149.625 155.531 149.625C158.878 149.625 161.438 147.066 161.438 143.719 161.438 140.372 158.878 137.812 155.531 137.812L45.2812 137.812C41.9344 137.812 39.375 135.253 39.375 131.906L39.375 121.078 161.438 110.25Z" fill="#000000" fill-rule="nonzero" fill-opacity="1"/><path d="M63 161.438C63 167.961 57.7114 173.25 51.1875 173.25 44.6636 173.25 39.375 167.961 39.375 161.438 39.375 154.914 44.6636 149.625 51.1875 149.625 57.7114 149.625 63 154.914 63 161.438Z" fill="#000000" fill-rule="nonzero" fill-opacity="1"/><path d="M149.625 161.438C149.625 167.961 144.336 173.25 137.812 173.25 131.289 173.25 126 167.961 126 161.438 126 154.914 131.289 149.625 137.812 149.625 144.336 149.625 149.625 154.914 149.625 161.438Z" fill="#000000" fill-rule="nonzero" fill-opacity="1"/></g></g></svg>