<svg width="170" height="170" xmlns="http://www.w3.org/2000/svg" xmlns:xlink="http://www.w3.org/1999/xlink" xml:space="preserve" overflow="hidden"><g><g><path d="M139.188 30.1042 30.8125 30.1042C27.4678 30.1236 24.7722 32.8509 24.7917 36.1957 24.7917 36.1957 24.7917 36.1958 24.7917 36.1958L24.7917 109.402C24.772 112.747 27.4676 115.474 30.8123 115.494 30.8123 115.494 30.8125 115.494 30.8125 115.494L97.0417 115.494 121.125 139.896 121.125 115.494 139.188 115.494C142.532 115.474 145.228 112.747 145.208 109.402 145.208 109.402 145.208 109.402 145.208 109.402L145.208 36.1958C145.228 32.8511 142.532 30.1238 139.188 30.1042 139.188 30.1042 139.188 30.1042 139.188 30.1042ZM56.6667 81.4583C51.7767 81.4583 47.8125 77.4941 47.8125 72.6042 47.8125 67.7142 51.7767 63.75 56.6667 63.75 61.5566 63.75 65.5208 67.7142 65.5208 72.6042 65.5208 77.4941 61.5566 81.4583 56.6667 81.4583ZM85 81.4583C80.11 81.4583 76.1458 77.4941 76.1458 72.6042 76.1458 67.7142 80.11 63.75 85 63.75 89.89 63.75 93.8542 67.7142 93.8542 72.6042 93.8542 77.4941 89.89 81.4583 85 81.4583ZM113.333 81.4583C108.443 81.4583 104.479 77.4941 104.479 72.6042 104.479 67.7142 108.443 63.75 113.333 63.75 118.223 63.75 122.188 67.7142 122.188 72.6042 122.188 77.4941 118.223 81.4583 113.333 81.4583Z" fill="#FFFFFF" fill-rule="nonzero" fill-opacity="1"/></g></g></svg>