<svg width="170" height="170" xmlns="http://www.w3.org/2000/svg" xmlns:xlink="http://www.w3.org/1999/xlink" xml:space="preserve" overflow="hidden"><g><g><path d="M80.3958 97.75 83.2292 106.427 81.6354 108.021 72.9583 105.188C72.9583 105.188 72.9583 105.188 72.7812 105.01 70.8333 103.062 70.8333 99.875 72.9583 97.9271 75.0833 95.9792 78.2708 95.8021 80.3958 97.75ZM20.8958 58.7917 70.8333 108.729 90.3125 115.104 83.9375 95.8021 34 45.6875 20.8958 58.7917Z" fill="#FFFFFF" fill-rule="nonzero" fill-opacity="1"/><path d="M9.73958 42.3229C8.32292 43.9167 8.5 46.3958 10.0938 47.8125L17.1771 54.8958 30.1042 41.9688 23.0208 34.8854C23.0208 34.8854 23.0208 34.8854 23.0208 34.8854 21.4271 33.2917 18.7708 33.2917 17.3542 34.8854L10.0938 42.1458C9.91667 42.1458 9.91667 42.3229 9.73958 42.3229Z" fill="#FFFFFF" fill-rule="nonzero" fill-opacity="1"/><path d="M123.958 108.021 93.5 108.021 95.9792 115.104 123.958 115.104Z" fill="#FFFFFF" fill-rule="nonzero" fill-opacity="1"/><path d="M123.958 65.5208 61.2708 65.5208 68.3542 72.6042 123.958 72.6042Z" fill="#FFFFFF" fill-rule="nonzero" fill-opacity="1"/><path d="M35.4167 80.75 35.4167 148.75C35.4167 152.646 38.6042 155.833 42.5 155.833L138.125 155.833C142.021 155.833 145.208 152.646 145.208 148.75L145.208 31.875C145.208 27.9792 142.021 24.7917 138.125 24.7917L108.021 24.7917 108.021 21.25C108.021 17.3542 104.833 14.1667 100.938 14.1667L79.6875 14.1667C75.7917 14.1667 72.6042 17.3542 72.6042 21.25L72.6042 24.7917 42.5 24.7917C38.6042 24.7917 35.4167 27.9792 35.4167 31.875L35.4167 39.6667 37.3646 41.6146 37.7188 41.9688 46.0417 50.2917 46.0417 35.4167 65.5208 35.4167 65.5208 46.0417 115.104 46.0417 115.104 35.4167 134.583 35.4167 134.583 145.208 46.0417 145.208 46.0417 91.375 35.4167 80.75ZM95.625 26.5625C95.625 29.5729 93.3229 31.875 90.3125 31.875 87.3021 31.875 85 29.5729 85 26.5625 85 23.5521 87.3021 21.25 90.3125 21.25 91.7292 21.25 93.1458 21.7812 94.0312 22.8438 95.0938 23.7292 95.625 25.1458 95.625 26.5625Z" fill="#FFFFFF" fill-rule="nonzero" fill-opacity="1"/><path d="M123.958 86.7708 82.5208 86.7708 89.6042 93.8542 123.958 93.8542Z" fill="#FFFFFF" fill-rule="nonzero" fill-opacity="1"/></g></g></svg>