<svg width="170" height="170" xmlns="http://www.w3.org/2000/svg" xmlns:xlink="http://www.w3.org/1999/xlink" xml:space="preserve" overflow="hidden"><g><g><path d="M10.625 42.5 24.7917 42.5 24.7917 127.5 10.625 127.5Z" fill="#FFFFFF" fill-rule="nonzero" fill-opacity="1"/><path d="M60.2083 42.5 74.375 42.5 74.375 127.5 60.2083 127.5Z" fill="#FFFFFF" fill-rule="nonzero" fill-opacity="1"/><path d="M31.875 42.5 38.9583 42.5 38.9583 127.5 31.875 127.5Z" fill="#FFFFFF" fill-rule="nonzero" fill-opacity="1"/><path d="M46.0417 42.5 53.125 42.5 53.125 127.5 46.0417 127.5Z" fill="#FFFFFF" fill-rule="nonzero" fill-opacity="1"/><path d="M81.4583 42.5 95.625 42.5 95.625 127.5 81.4583 127.5Z" fill="#FFFFFF" fill-rule="nonzero" fill-opacity="1"/><path d="M131.042 42.5 145.208 42.5 145.208 127.5 131.042 127.5Z" fill="#FFFFFF" fill-rule="nonzero" fill-opacity="1"/><path d="M102.708 42.5 109.792 42.5 109.792 127.5 102.708 127.5Z" fill="#FFFFFF" fill-rule="nonzero" fill-opacity="1"/><path d="M116.875 42.5 123.958 42.5 123.958 127.5 116.875 127.5Z" fill="#FFFFFF" fill-rule="nonzero" fill-opacity="1"/><path d="M152.292 42.5 159.375 42.5 159.375 127.5 152.292 127.5Z" fill="#FFFFFF" fill-rule="nonzero" fill-opacity="1"/></g></g></svg>