<svg width="172" height="172" xmlns="http://www.w3.org/2000/svg" xmlns:xlink="http://www.w3.org/1999/xlink" xml:space="preserve" overflow="hidden"><g><g><g><g><g><path d="M135.375 78.375C135.375 82.2938 132.169 85.5 128.25 85.5 124.331 85.5 121.125 82.2938 121.125 78.375L121.125 71.25 117.562 35.625 131.812 35.625 135.375 71.25 135.375 78.375ZM106.875 78.375C106.875 82.2938 103.669 85.5 99.75 85.5 95.8312 85.5 92.625 82.2938 92.625 78.375L92.625 71.25 90.8438 35.625 105.094 35.625 106.875 71.25 106.875 78.375ZM78.375 71.25 78.375 78.375C78.375 82.2938 75.1688 85.5 71.25 85.5 67.3312 85.5 64.125 82.2938 64.125 78.375L64.125 71.25 65.9062 35.625 80.1562 35.625 78.375 71.25ZM71.25 128.25 42.75 128.25 42.75 99.75 71.25 99.75 71.25 128.25ZM35.625 78.375 35.625 71.25 39.1875 35.625 53.4375 35.625 49.875 71.25 49.875 78.375C49.875 82.2938 46.6688 85.5 42.75 85.5 38.8312 85.5 35.625 82.2938 35.625 78.375ZM142.5 24.9375 28.5 24.9375 21.375 71.25 21.375 78.375C21.375 82.2938 24.5813 85.5 28.5 85.5L28.5 146.062 89.0625 146.062 89.0625 99.75 128.25 99.75 128.25 146.062 142.5 146.062 142.5 85.5C146.419 85.5 149.625 82.2938 149.625 78.375L149.625 71.25 142.5 24.9375Z" fill="#FFFFFF" fill-rule="nonzero" fill-opacity="1"/></g></g></g></g></g></svg>